<svg xmlns="http://www.w3.org/2000/svg" viewBox="0 0 512 512">
  <rect width="512" height="512" rx="96" fill="#D97706"/>
  <g fill="#FFFFFF">
    <circle cx="256" cy="220" r="120" opacity="0.15"/>
    <path d="M256 132c48 0 88 40 88 88s-40 88-88 88-88-40-88-88 40-88 88-88zm0 28c-33 0-60 27-60 60s27 60 60 60 60-27 60-60-27-60-60-60z"/>
    <rect x="222" y="200" width="68" height="14" rx="7"/>
    <rect x="240" y="226" width="32" height="14" rx="7"/>
    <path d="M168 360h176c8 0 14 6 14 14v6c0 30-24 54-54 54H208c-30 0-54-24-54-54v-6c0-8 6-14 14-14z"/>
  </g>
</svg>
